<svg xmlns="http://www.w3.org/2000/svg" width="3417" height="1748" viewBox="0 0 3417 1748">
  <defs>
    <style>
      .cls-1 {
        fill-rule: evenodd;
      }
    </style>
  </defs>
  <path id="c.svg" class="cls-1" d="M4487,691.841V523.878H3606.65C3395.57,308.333,3102.24,174.048,2776.64,174c-330.01.048-627.32,137.772-839.23,358.237H1070V700.2h851.1V817.767H1326.77V985.754H1921.1V1089.73H1615.79v167.96H1921.1V1512.7l237.8,155.42V1586.6L2814.76,1922l583.46-325.68v63.42l237.7-155.43V1249.36h305.29V1081.37H3635.92v-104h594.32V809.43H3635.92V691.841H4487ZM2811.3,1731.56l-722.12-369.34v-771.2c181.24-166.7,421.78-269.071,687.46-269.071,267.53,0,509.57,103.783,691.31,272.487V1365.06ZM2599.14,538h520.17c9.29,0.335,36.21,7.6,36.21,7.6q34.68,22,47.48,66.478V629.25c-4.44,24.031-17.05,45.457-38.09,64.567l-30.34,11.394a30.842,30.842,0,0,0-15.26,1.865H2591.53c-14.53,3.772-45.44,26.562-45.44,26.562-7.33,9.173-13.68,21.259-19.07,36.023l-1.92,3.87V1140.15c0.37,7.82,2.26,16.68,5.67,26.45q14.655,25.62,43.72,43.71c15.79,5.04,104.38,5.73,104.38,5.73h431.05c11.42-.38,43.64,7.62,43.64,7.62,26.94,14.82,43.35,39.47,49.44,74.01v11.46q-8.52,43.11-51.23,70.14c-19.37,5.11-104.5,5.73-104.5,5.73H2658.02s-88.45-2.36-146.22-19.02-155.77-103.99-153.78-203.2c0.72-36.11-1.93-252.47-1.93-252.47Q2322.955,576.077,2599.14,538Z" transform="translate(-1070 -174)"/>
</svg>
