<svg xmlns="http://www.w3.org/2000/svg" width="10206" height="1748" viewBox="0 0 10206 1748">
  <defs>
    <style>
      .cls-1 {
        fill: #fff;
        fill-rule: evenodd;
      }
    </style>
  </defs>
  <path id="logo-horizontal.svg" class="cls-1" d="M5998.02,1277.57c-9.13-32.68-28.22-60.21-55.83-77.36l-6.52-4.06s-30.41-6.62-40.26-7.04H5407.84l-1.88.21c-81.15,11.05-146.21,42.75-189.54,96.33-43.34,53.49-63.42,125.8-63.42,213.53,0,20.49,3.31,278.48,3.31,278.48l1.96,22.37,0.02,0.58,1.83,14.59,0.49,3.55,1.31,3.28,5.42,26.48,15.88,31.23c3.78,8.71,7.85,17.1,12.94,23.93l-0.32.2c0.32,0.53.76,0.84,1.1,1.31,0.21,0.26.31,0.73,0.52,0.99l0.18-.05c30.41,48.06,70.88,84.14,120.03,105.41l5.08,2.19h4.39l14.75,5.41,0.19,0.16,5.94,1.98,5.14,1.67,4.22,1.52,13.69,3.12,5.51,0.32c12.22,0.52,87.87,3.54,87.87,3.54h389.99l17.01,0.36c22.5,0,42.26-2.03,59.71-6.46l4.01-1.04,3.66-2.29c31.39-19.55,53.14-48.54,59.63-82.89l0.55-2.56v-15.53l-0.42-2.29c-6.07-37.96-26.8-70.43-59.29-88l-6.08-3.34s-34.55-7.04-45.82-7.04H5438.22l-10.33.31a110,110,0,0,1-30.11-3.96c-11.97-8.18-20.6-16.89-26.6-26.27l-3.52-16.74V1441.01a93.848,93.848,0,0,1,11.68-22.42l0.1-.05,2.8-2.82c8.97-8.49,17.23-12.98,24.97-15.48h488.77l15.65-1.93,3.21-.42,31.39-11.62,4.85-1.93,3.81-3.39c23-20.75,38.62-46.5,43.7-75.18l0.42-2.44v-22.21Zm313.67,647.52-0.11-3.64h0V1288.83l-1.93-17.56-0.47-3.91-1.59-3.65c-18.17-45.41-58.23-74.91-105.53-74.6l-3.21-.11-3.2.73c-36.9,7.98-67.75,29.2-84.8,61.05l-3.29,5.99s-5.58,29.67-5.58,38.89l0.1,3.45h0V1941.2l1.08,3.65c11.86,44.99,45.78,78.41,90.64,84.66l2.26,0.26h4.65c43.78,1.05,83.31-21.52,102.58-60.52l3.07-5.79S6311.69,1934.48,6311.69,1925.09Zm3185.61,1.25v-3.64h0V1290.19l-1.92-17.47-0.42-4.06-1.67-3.81c-18.1-45.14-58.2-74.8-105.66-74.49l-3.29-.16-3.08.79c-36.97,7.97-67.74,29.19-84.79,61.04l-3.34,6s-5.32,29.29-5.32,38.68l0.05,3.7h0v642.04l1.04,3.55c11.69,45.09,45.74,78.51,90.38,84.71l2.41,0.31h4.58c43.86,1.05,83.5-21.52,102.64-60.47l3.13-5.94S9497.3,1935.26,9497.3,1926.34Zm865-490.5-3-23.35v-1.93l-2.7-13.55-3.2-14.44-0.4-1.36-2.1-6.72-7.1-21.27-5.7-9.44-0.4-1.25-2.5-5.06-0.7-1.46-3.5-5.26-20.5-33.84-12.1-16-25.7-25.29-11.2-9.63-0.4-.48-16.8-12.87-2.7-2.09s-28.6-13.29-35.1-18.04l-12.2-5.21-2.6-.88-16.7-5.01-4-1.25-0.7-.26-12.6-3.65-3.6-1.04-5.8-1.36-5.6-.37a154.372,154.372,0,0,1-25.4-2.81l-2.9-.78H9877.44l-1.93.26c-105.97,13.76-185.81,69.18-227.49,160.36l-1.45,2.92-6.52,22v0.26l-2.14,5.78-1.67,5.01-0.84,2.55s-5.84,42.7-7.14,47.96l-0.62,3.08v447.65l-0.22,16.36c0,22.73,1.93,42.81,6.78,60.53l0.99,4.22,2.35,3.55c22.69,35.55,55.91,59.06,94.6,58.9,21.23-.15,42.3-6.77,63.06-18.19l9.7-8.44,0.62-.53,11.17-13.08,15.54-27.68,1.04-175.95h321.23l0.4,154.21c0.7,7.14,1.1,14.49,2.8,21.11l1,3.76,1.9,3.28c22.1,37.74,58.1,62.08,99.5,61.51,0,0,78.3-1.61,96.5-67.14l3.1-15.53,3-25.71V1438.55Zm-527.99,167.81,0.63-140.7s8.24-28.83,13.45-37.53c7.41-12.41,16.64-19.45,30.98-24.35h168.13l25-.83c20,0,36.2,1.77,49.3,4.59,18.6,12.72,28.8,29.76,31.7,58.12l0.4,140.7H9834.31ZM8194.86,1379.54l-0.1-.36v-0.21c-26.08-79.39-76.95-138.3-149.05-169.95l-36.58-11.1-31.35-5.06v0.16c-11.37-2.35-21.9-3.91-31.42-3.91H7363.93v749.8s18.5,93.11,110.17,93.11c77.53,0,96.84-79.82,96.84-79.82V1699.62H8025.4c59.71-20.33,108.16-56.34,140.1-108.89l0.21-.42c26.49-44.31,40.63-90.55,40.63-137.31A245.958,245.958,0,0,0,8194.86,1379.54Zm-211.42,106.19c-5.87,7.93-14.37,13.82-27.12,18.3l-30.17,1.51h-350.8v-105.3h379.2c27.64,12.04,37.49,25.28,40.68,50.98C7993.53,1466.76,7989.54,1477.91,7983.44,1485.73Zm193.64,400.84-8.81-17.99-138.16-138.25h-291.6l279.85,279.84c8.63,5.78,17.34,11.84,25.86,15.54l3.13,1.35,3.16,0.52,25.55,2.09c42.79,1.04,80.86-23.51,98.62-62.98l0.73-1.56,0.52-1.56a131.147,131.147,0,0,0,7.04-41.4,108.441,108.441,0,0,0-5.26-33.83Zm975.08,10.16v-11.68L8674.3,1407.43l-204.07-201.75c-21.28-10.42-43.14-16.57-64.99-16.57h-3.8l-3.55,1.04c-37.44,10.43-67.74,33.94-82.66,67.78l-1.67,4.11-4.01,39.72-0.11,1.21v583.81l-0.31,17.51c0,22.32,1.88,41.92,6.41,59.28l0.99,3.75,2.03,3.44c21.13,36.34,56.64,59.95,96.96,59.33l9.49-.42,1.41-.11,1.51-.21c40.16-6.93,73.17-32.32,87.3-69.59l1.83-4.79v-6.21l1.35-2.76,2.14-33.42,0.06-.83v-362.1l5.26,5.37,3.81,3.64,1.1,1.1,0.98,0.78c8.45,6.78,33.38,32.17,33.38,32.17l2.4,2.03,4.27,4.27,0.79,1.31,69.05,68.92,0.94,0.83,0.84,0.94,148.63,148.68,3.8,3.49,1.05,1.3,15.59,15.53,1.04,0.79,6.21,6.15,5.37,5.31-0.21-.26,3.55,3.55,3.6,3.59,3.23,3.29,0.62,0.58,0.58,0.93,24.56,24.61,1.73,1.56,0.2,0.32,43.18,43.21,0.94,0.74,2.09,2.29,19.24,19.34,1.15,0.62,11.89,12.1,0.1,0.21,2.98,2.61,1.87,2.34,38.29,38.21,0.52,0.31c22.99,12.31,46.93,19.03,70.92,19.03h3.7l3.6-1.04c37.29-10.06,67.12-33.94,82.51-67.36l2.5-5.47s4.02-30.5,4.02-39.93l-0.32-6.67v-14.24Zm-211.47-266.38,211.47,211.33V1281.12s-2.72-27.66-23.46-53.59c-10.8-13.5-54.87-38-85.22-38.11-37.03-.1-68.22,23.2-90.95,57.4,0,0-.16.08-4.64,6.77s-7.62,40.4-7.62,53.96Zm1775.71-390.83-4.3-6.05c-24.7-28.2-58.2-44.67-94.4-44.36h-3.1l-3.1.73c-37.9,8.65-67.8,33.1-82.9,67.04v704.81c7.9,17.57,29.6,65.68,103.6,68.81,74.1,3.13,94.9-74.34,94.9-74.34V1271.58C10724.5,1260.21,10721.2,1249.37,10716.4,1239.52Zm555.4,649.97-3.8-7.35-1.9-3.44-1.6-3.6-1.7-3.18-9.7-10.48-340-250.75,353.3-266.91,3.1-5.52,1.9-3.4,0.8-3.8a148.654,148.654,0,0,0,3.8-33.52c0.2-22.78-2.1-45.17-19.7-67.36-17.7-22.18-55.6-38.67-86.6-38.46-7.8,0-15.6,1.92-23.6,3.49l-385.4,272.28v286.46l355.6,262.58,14,7.72,4.3,2.24,4.8,0.62a222.621,222.621,0,0,0,32.8,2.56c29.4,0.1,56.5-7.25,76.1-26.28,19.6-18.97,27.3-46.13,27.1-75.12a222.109,222.109,0,0,0-2.9-34.46Zm-4011.76-611.6c-9.1-35.09-30.35-63.92-60.83-80.28l-7.15-2.61a254.814,254.814,0,0,0-37.65-5.89H6669.76l-1.85.21c-81.18,10.84-146.37,42.54-189.65,96.02-43.34,53.59-63.39,125.9-63.39,213.74,0,20.49,3.23,278.58,3.23,278.58l1.98,22.37,0.11,0.58,1.8,14.59,0.52,3.55,1.28,3.28,5,19.13,6.55,16.79,9.67,21.79c3.78,8.6,7.77,16.89,13.04,24.03l-0.32.1a5.022,5.022,0,0,1,.95,1.15,9.245,9.245,0,0,0,.65,1.15l0.21-.21c30.48,48.22,70.84,84.3,120.02,105.57l5.06,2.19,19.14,5.41,0.63,0.27,5.66,1.87,5.05,1.67s44.88,6.62,50.88,7.88l60.47,0.62h389.88l17.09,0.36c22.48,0,42.11-2.03,59.55-6.46l4.1-1.04,3.62-2.29c31.32-19.4,60.06-44.61,60.32-93.42,2.44-58.63-45.95-88.78-45.95-88.78l-3.57-3.39-4.51-1.77c-24.8-10.12-50.04-15.49-75.16-15.33l-131.31,1.04H6669.45s-36.58-7.14-39.4-36.8l-0.55-2.61V1455.6c3.15-22.73,10.22-36.38,18.62-44.26,8.73-7.97,20.81-13.03,41.75-13.24l96.58,2.14h345.04s53.73,1.25,79.48-15.27l3.18-1.67,2.61-2.35c23.02-20.75,38.59-46.5,43.83-75.12l0.42-2.4v-22.1Zm-526.55,438.94h322.12l1.87-.21a134.912,134.912,0,0,0,31.32-8.5v0.22l10.64-3.6,5.14-1.67,3.98-3.55c28.4-24.6,45.12-57.71,44.8-93.36l-0.2-8.08-0.24-2.3-0.52-2.35c-6.6-28.56-23.83-53.38-48.66-68.08-24.8-14.91-55.31-20.95-90.61-20.95-14.01,0-58.57,3.02-58.57,3.02H6740.61l-131.79-3.02v212.43h124.67ZM4487,1338.84V1170.88H3606.65C3395.57,955.333,3102.24,821.048,2776.64,821c-330.01.048-627.32,137.772-839.23,358.24H1070V1347.2h851.1v117.57H1326.77v167.98H1921.1v103.98H1615.79v167.96H1921.1V2159.7l237.8,155.42V2233.6L2814.76,2569l583.46-325.68v63.42l237.7-155.43V1896.36h305.29V1728.37H3635.92v-104h594.32V1456.43H3635.92V1338.84H4487ZM2811.3,2378.56l-722.12-369.34v-771.2c181.24-166.7,421.78-269.072,687.46-269.072,267.53,0,509.57,103.782,691.31,272.482v770.63ZM2599.14,1185h520.17c9.29,0.34,36.21,7.6,36.21,7.6q34.68,21.99,47.48,66.47v17.18c-4.44,24.03-17.05,45.46-38.09,64.57l-30.34,11.39a30.81,30.81,0,0,0-15.26,1.87H2591.53c-14.53,3.77-45.44,26.56-45.44,26.56-7.33,9.17-13.68,21.26-19.07,36.02l-1.92,3.87v366.62c0.37,7.82,2.26,16.68,5.67,26.45q14.655,25.62,43.72,43.71c15.79,5.04,104.38,5.73,104.38,5.73h431.05c11.42-.38,43.64,7.62,43.64,7.62,26.94,14.82,43.35,39.47,49.44,74.01v11.46q-8.52,43.11-51.23,70.14c-19.37,5.11-104.5,5.73-104.5,5.73H2658.02s-88.45-2.36-146.22-19.02-155.77-103.99-153.78-203.2c0.72-36.11-1.93-252.47-1.93-252.47Q2322.955,1223.08,2599.14,1185Z" transform="translate(-1070 -821)"/>
</svg>
