<svg xmlns="http://www.w3.org/2000/svg" width="100" height="24" viewBox="0 0 100 24"><style type="text/css">.st0{fill:#ffffff;}.st1{fill:#007BFF;}</style><path id="danceitPKpl.svg" class="st0" d="M79.9,16.2h2.2v2.2h-2.2V16.2z M80.9,17.5V18h0.2v-0.4l0.1-0.1l0,0l0.2,0.5h0.2l-0.3-0.7l0.3-0.6h-0.2l-0.3,0.6l0,0v-0.6h-0.2c-0.1,0-0.1,0-0.2,0c0,0,0,0,0,0c0,0-0.1,0.1-0.1,0.1c0,0,0,0.1,0,0.1c0,0,0,0,0,0v0c0,0,0,0,0,0s0,0,0,0v0.2c0,0,0,0,0,0v0l0,0c0,0,0,0,0,0.1c0,0.1,0.1,0.1,0.2,0.2C80.8,17.5,80.8,17.5,80.9,17.5z M80.9,16.9v0.4h-0.1c0,0,0,0-0.1,0c0,0,0,0,0,0c0,0,0,0,0,0c0,0,0-0.1,0-0.1v-0.2c0,0,0-0.1,0-0.1c0,0,0,0,0,0h0L80.9,16.9L80.9,16.9z M1.4,7c-1,1.5-1.5,3.3-1.4,5.1c-0.1,1.7,0.4,3.4,1.4,4.8c1,1.1,2.5,1.7,4,1.6c1.7,0.1,3.2-0.8,4.1-2.2h0.1l0.3,1.9h0.7V0H9.5v4.6c0,0.9,0,1.9,0.1,2.9H9.5C9,6.8,8.4,6.2,7.7,5.8C7,5.4,6.1,5.2,5.3,5.3C3.8,5.2,2.3,5.8,1.4,7z M8.5,7.6c0.8,1.3,1.1,2.8,1,4.3v0.2c0.1,1.5-0.2,2.9-1,4.1c-0.8,0.9-1.9,1.4-3.1,1.3c-2.8,0-4.2-1.8-4.2-5.4c-0.1-1.5,0.3-3,1-4.3c0.7-1,1.9-1.5,3.1-1.5C6.5,6.2,7.7,6.7,8.5,7.6L8.5,7.6z M23.3,18.3V9.8c0.1-1.2-0.3-2.4-1-3.4c-0.8-0.8-2-1.2-3.1-1.1c-1.4,0-2.8,0.4-4.1,1l0.4,1c1.1-0.6,2.4-1,3.6-1c0.9-0.1,1.8,0.3,2.3,0.9C22,8,22.3,9,22.2,10v0.8l-2.4,0.1c-1.6-0.1-3.1,0.3-4.4,1.1c-1,0.6-1.6,1.7-1.5,2.9c-0.1,1,0.3,2,1,2.7c0.8,0.7,1.8,1,2.9,1c0.8,0,1.6-0.2,2.4-0.5c0.8-0.4,1.4-1,1.9-1.7h0.1l0.3,2L23.3,18.3L23.3,18.3z M15.8,16.8c-0.5-0.5-0.8-1.2-0.7-1.9c-0.1-0.9,0.4-1.7,1.1-2.2c1.2-0.6,2.5-0.9,3.8-0.8l2.2-0.1V13c0.1,1.2-0.4,2.4-1.2,3.2c-0.9,0.8-2,1.2-3.2,1.2C17.1,17.5,16.4,17.3,15.8,16.8L15.8,16.8z M37.3,18.3V9.9c0-3.1-1.4-4.7-4.3-4.7c-2.1,0-3.5,0.7-4.4,2h-0.1l-0.2-1.8h-1v12.8h1.1v-7c-0.1-1.3,0.3-2.7,1-3.8c0.9-0.8,2.1-1.3,3.3-1.2c0.9-0.1,1.8,0.2,2.5,0.9C35.9,8,36.2,9,36.1,10v8.3C36.1,18.3,37.3,18.3,37.3,18.3z M49.5,17.9v-1.1c-1,0.4-2.1,0.6-3.2,0.6C45.1,17.5,43.8,17,43,16c-0.9-1.2-1.3-2.6-1.2-4c-0.1-1.5,0.3-3,1.2-4.2c0.9-1,2.2-1.5,3.5-1.4c1,0,1.9,0.2,2.8,0.6l0.3-1c-1-0.4-2.1-0.6-3.1-0.6c-1.6-0.1-3.2,0.6-4.3,1.8c-1.1,1.4-1.7,3.1-1.6,4.9c-0.1,1.7,0.4,3.5,1.5,4.8c1.1,1.2,2.6,1.8,4.2,1.7C47.4,18.5,48.5,18.3,49.5,17.9L49.5,17.9L49.5,17.9zM59.7,18.3c0.7-0.1,1.3-0.4,2-0.6v-1.1c-0.7,0.3-1.4,0.5-2.1,0.7c-0.6,0.1-1.3,0.2-1.9,0.2c-1.3,0.1-2.5-0.4-3.4-1.4c-0.9-1.2-1.3-2.6-1.2-4h9.1v-0.9c0.1-1.5-0.4-3-1.3-4.3c-0.9-1-2.2-1.6-3.5-1.6c-1.5-0.1-3,0.6-4,1.8c-1,1.4-1.6,3.1-1.5,4.9c-0.1,1.7,0.4,3.4,1.5,4.8c1.1,1.2,2.7,1.8,4.3,1.7C58.3,18.5,59,18.4,59.7,18.3L59.7,18.3z M60,7.5c0.7,1,1,2.2,0.9,3.5h-7.8c0-1.3,0.5-2.5,1.3-3.5c0.7-0.8,1.8-1.3,2.9-1.2C58.4,6.2,59.3,6.7,60,7.5L60,7.5z M93.9,16.7c1-1.4,1.5-3.1,1.4-4.9c0.1-1.7-0.4-3.5-1.3-4.9c-1-1.2-2.4-1.8-3.9-1.7c-1.7-0.1-3.3,0.7-4.2,2.1h-0.1l-0.2-1.8h-1V24h1.1v-4.9c0-0.7,0-1.3,0-1.9l0-1h0.1c0.9,1.5,2.5,2.3,4.2,2.2C91.6,18.5,93,17.9,93.9,16.7z M86.8,16.2c-0.8-1.3-1.1-2.8-1-4.3v-0.4c-0.1-1.4,0.2-2.8,1-4c0.8-0.9,2-1.3,3.2-1.2c2.7,0,4,1.9,4,5.6c0.1,1.4-0.3,2.9-1.1,4.1c-0.7,1-1.8,1.5-3,1.5C88.9,17.5,87.7,17.1,86.8,16.2z M100,0h-1.1v18.2h1.1V0z"></path><rect x="65.5" y="5.4" class="st1" width="1.9" height="12.9"></rect><path class="st1" d="M65.7,2.9c0.2,0.2,0.5,0.3,0.8,0.3c0.3,0,0.6-0.1,0.8-0.3c0.2-0.3,0.4-0.6,0.3-1c0-0.4-0.1-0.7-0.3-1c-0.5-0.4-1.2-0.4-1.6,0c-0.2,0.3-0.4,0.6-0.3,1C65.3,2.3,65.4,2.6,65.7,2.9z"></path><path class="st1" d="M74.1,16.3c-0.4-0.5-0.6-1.1-0.5-1.8V6.9h3.7V5.4h-3.7v-3h-1.1l-0.8,2.7L69.8,6v0.9h1.8v7.7c0,2.6,1.2,3.9,3.7,3.9c0.4,0,0.7,0,1.1-0.1c0.3,0,0.6-0.1,0.9-0.3v-1.5c-0.2,0.1-0.5,0.1-0.8,0.2c-0.3,0.1-0.7,0.1-1,0.1C75,16.9,74.5,16.7,74.1,16.3z"></path></svg>