<?xml version="1.0" encoding="utf-8"?>
<!-- Generator: Adobe Illustrator 24.0.1, SVG Export Plug-In . SVG Version: 6.00 Build 0)  -->
<svg version="1.1" id="SDT_x5F_LOGO-SHAPE-WHITE_1_"
	 xmlns="http://www.w3.org/2000/svg" xmlns:xlink="http://www.w3.org/1999/xlink" x="0px" y="0px" viewBox="0 0 480 127.92"
	 style="enable-background:new 0 0 480 127.92;" xml:space="preserve">
<style type="text/css">
	.st0{fill:#FFFFFF;}
	.st1{fill:#D90000;}
</style>
<g id="Dance_Team">
	<g>
		<path class="st0" d="M135.97,75.79h-19.75v42.52h19.75c6.38,0,10.03-3.64,10.03-9.11V84.9C146,79.44,142.35,75.79,135.97,75.79z
			 M141.75,109.2c0,3.34-2.43,5.77-5.77,5.77h-15.5V79.13h15.5c3.34,0,5.77,2.43,5.77,5.77V109.2z M166.96,75.79l-14.58,40.39v2.13
			h3.95l3.95-11.24h19.14l3.95,11.24h3.95v-2.13l-14.58-40.39H166.96z M161.19,103.73l8.51-23.69h0.3l8.51,23.69H161.19z
			 M220.13,103.73l0.61,8.81h-0.3l-20.66-36.75h-5.17v42.52h4.25V90.37l-0.61-8.81h0.3l20.66,36.75h5.17V75.79h-4.25V103.73z
			 M235.02,84.9v24.3c0,5.47,3.65,9.11,10.03,9.11h17.62v-3.34h-17.62c-3.34,0-5.77-2.43-5.77-5.77V84.9c0-3.34,2.43-5.77,5.77-5.77
			h16.41l1.22-1.21v-2.13h-17.62C238.67,75.79,235.02,79.44,235.02,84.9z M270.57,118.31h27.34v-3.34h-23.09v-16.7h17.93v-3.34
			h-17.93V79.13h21.88l1.22-1.21v-2.13h-27.34V118.31z M317.05,79.13h13.37v39.18h4.25V79.13h12.15l1.22-1.21v-2.13h-30.99V79.13z
			 M355.03,118.31h27.34v-3.34h-23.09v-16.7h17.93v-3.34h-17.93V79.13h21.88l1.22-1.21v-2.13h-27.34V118.31z M400.6,75.79
			l-14.58,40.39v2.13h3.95l3.95-11.24h19.14l3.95,11.24h3.95v-2.13l-14.58-40.39H400.6z M394.83,103.73l8.51-23.69h0.3l8.51,23.69
			H394.83z M471.39,75.79h-6.08l-13.37,32.8h-0.3l-13.37-32.8h-6.08l-5.47,40.39v2.13h3.95l4.86-37.96h0.3l13.06,32.8h5.77
			l13.06-32.8h0.3l4.86,37.96h3.95v-2.13L471.39,75.79z"/>
	</g>
</g>
<g id="SCORPION">
	<g>
		<path class="st1" d="M144.32,39.76l-16.61-3.95c-3.56-0.87-5.93-3.16-5.93-6.72v-4.35c0-4.35,3.16-7.51,7.51-7.51h20.96l1.58-1.58
			v-2.77H129.3c-8.3,0-13.05,4.74-13.05,11.86v4.35c0,6.32,3.56,9.96,9.89,11.46l16.61,3.95c3.56,0.87,5.93,3.16,5.93,6.72v5.14
			c0,4.35-3.16,7.51-7.51,7.51h-24.91v4.35h24.91c8.3,0,13.05-4.74,13.05-11.86v-5.14C154.21,44.9,150.65,41.26,144.32,39.76z
			 M164.89,24.74v31.62c0,7.12,4.75,11.86,13.05,11.86h22.94v-4.35h-22.94c-4.35,0-7.51-3.16-7.51-7.51V24.74
			c0-4.35,3.16-7.51,7.51-7.51h21.36l1.58-1.58v-2.77h-22.94C169.63,12.88,164.89,17.62,164.89,24.74z M236.47,12.09h-14.24
			c-8.3,0-13.05,4.74-13.05,11.86v33.21c0,7.12,4.75,11.86,13.05,11.86h14.24c8.3,0,13.05-4.74,13.05-11.86V23.95
			C249.52,16.83,244.77,12.09,236.47,12.09z M243.98,57.15c0,4.35-3.16,7.51-7.51,7.51h-14.24c-4.35,0-7.51-3.16-7.51-7.51V23.95
			c0-4.35,3.16-7.51,7.51-7.51h14.24c4.35,0,7.51,3.16,7.51,7.51V57.15z M300.93,34.23v-9.49c0-7.12-4.75-11.86-13.05-11.86h-24.52
			v55.34h5.54V46.09h15.03l14.24,22.14h5.14v-2.77c-4.59-6.4-8.94-13.2-13.45-19.77C289.86,45.69,300.93,44.9,300.93,34.23z
			 M268.9,41.74V17.23h18.98c4.35,0,7.51,3.16,7.51,7.51v9.49c0,4.35-3.16,7.51-7.51,7.51H268.9z M339.29,12.88h-24.52v55.34h5.54
			V49.25h18.98c8.3,0,13.05-4.74,13.05-11.86V24.74C352.34,17.62,347.6,12.88,339.29,12.88z M346.8,37.39
			c0,4.35-3.16,7.51-7.51,7.51h-18.98V17.23h18.98c4.35,0,7.51,3.16,7.51,7.51V37.39z M364.6,68.22h5.54V12.88h-5.54V68.22z
			 M411.27,12.09h-14.24c-8.3,0-13.05,4.74-13.05,11.86v33.21c0,7.12,4.75,11.86,13.05,11.86h14.24c8.3,0,13.05-4.74,13.05-11.86
			V23.95C424.32,16.83,419.57,12.09,411.27,12.09z M418.78,57.15c0,4.35-3.16,7.51-7.51,7.51h-14.24c-4.35,0-7.51-3.16-7.51-7.51
			V23.95c0-4.35,3.16-7.51,7.51-7.51h14.24c4.35,0,7.51,3.16,7.51,7.51V57.15z M471.38,12.88v36.37l0.79,11.46h-0.4l-26.89-47.83
			h-6.72v55.34h5.54V31.85l-0.79-11.46h0.4l26.89,47.83h6.72V12.88H471.38z"/>
	</g>
</g>
<g id="scorpion">
	<g>
		<path class="st0" d="M18.73,58.85c0.21,0.03,0.66-0.28,0.64-0.42c-0.18-1.79,0.93-2.96,0.96-3.19s-0.02-0.81-1.38-1.43
			C6.63,48.17,0,37.93,0,37.93C3.58,48.86,18.52,58.82,18.73,58.85z M19.87,67.26c1.04,0,0.92-0.05,0.92-0.05s-0.03-0.68-0.08-0.76
			c-0.57-0.89-0.24-2.14-0.24-2.14s-0.1-0.51-0.13-0.56c-0.03-0.05-0.31-0.36-0.46-0.39s-1.91,0.06-2.21,0
			c-5.21-0.98-17.11-9.74-17.11-9.74c0.19,1.05,3.08,3.35,7.81,7.1C13.11,64.46,19.84,67.26,19.87,67.26z M23.69,40.01
			c0.54-0.09,4.4-2.72,4.4-2.72c-0.69-5.21,2.22-12.02,2.19-12.1c-0.02-0.08-0.5-1.26-0.53-1.27c-1.14-0.86-3.01-1.74-3.32-1.92
			c-0.31-0.18-1.41-0.01-1.43,0.04C22.56,26.92,23.15,40.1,23.69,40.01z M23.47,77.21c0.69-0.15,0.68-0.76,0.5-1.14
			s-1-2.75-1.34-3.05c-0.34-0.3-2.67,0.26-3.05,0.22c-7.79-0.78-15.09-4.27-15.09-4.27c1.72,1.75,8.88,5.68,12.15,6.75
			S22.78,77.36,23.47,77.21z M79.39,21.94c-0.25,0.38-3.14,1.77-3.14,1.77s-0.76,0.92-0.54,1.58c3.2,9.59,1.93,11.61,2.1,11.89
			c0.17,0.29,4.72,2.94,4.74,2.78c0.9-6.32-0.38-11.86-0.66-14.8c-0.27-2.94-0.78-3.23-1.08-3.39
			C80.53,21.62,79.64,21.56,79.39,21.94z M87.31,58.86c0.04,0,4.09-2.1,7.59-5.61c3.5-3.51,8.76-9.41,10.98-15.1
			c0,0-6.14,8.35-12.67,12.38c-6.53,4.03-5.94,2.61-7.66,4.32c-0.36,0.36,1,1.63,1.09,3.52C86.65,58.57,87.27,58.86,87.31,58.86z
			 M68.95,7.71c-5.59-3.73-7.83-3.43-7.63-3.22c8.99,9.8,6.46,11.87,9.11,15.73c2.66,3.86,6.66,1.96,7.3,1.44s6.14-6.42-2.46-14.09
			C66.69-0.09,61.2,0.03,61.2,0.03C67.16,3.98,69.33,7.96,68.95,7.71z M34.79,21.19c1.42-1.68,2.22-5.43,3.85-8.61
			c1.63-3.18,5.3-7.71,5.94-8.13s-1.26-0.33-5.19,1.93C35.46,8.64,36.72,7.3,37.89,6c1.17-1.3,5.77-5.47,6.82-5.97
			c0,0-1.79-0.6-9.08,3.72c-7.28,4.31-9.24,9.04-9.5,11.17c-0.26,2.13-0.13,4.59,1.88,6.39C30.02,23.11,33.37,22.87,34.79,21.19z
			 M51.5,89.75c0,0,1.11-1.33,3.07-0.03c0.09,0.06,1.58-0.01,1.58-0.01s1.11-0.37,1.39-0.63c0.28-0.26,0.61-0.62,0.67-0.85
			c0.06-0.23,0.4-1.13,0.51-1.79s0.96-4.52,1.35-8.55c0.39-4.02,0.65-6.19,0.76-6.3c0.12-0.11,0.17-0.19,0.33-0.08
			c0.15,0.11,1.65,1.77,1.65,1.77l3.13,3.51l3.52,3.91l2.36,2.72c0,0,3.3-2.62,3.51-3.27c0.21-0.65-0.28-1.29-1.04-1.92
			c-0.76-0.63-7.12-5.63-7.12-5.63l-5.94-4.82c0,0-0.23-1.1,0.07-1.82c0.01-0.02,0.08-0.14,0.13-0.16c0.05-0.02,6.78,3.77,6.78,3.77
			l8.43,5.32l2.34,1.59c0,0,0.36,0.41,1.39-1.67c1.03-2.08,1.23-2.47,1.09-2.86c-0.14-0.39-0.33-0.58-3.72-1.93
			c-3.38-1.35-4.28-1.82-4.28-1.82l-11.93-5.08l-0.11-0.05c0,0,0.05-0.87,0.05-1.56c0-0.02,2.47,0.35,3.73,0.81s6.09,1.79,6.09,1.79
			l10.89,3.69c0,0,0.36,0.3,0.96-2.4c0.6-2.7,0.67-2.72-1.08-3.15c-1.75-0.43-1.64-0.41-1.64-0.41l-12.37-1.84l-6.28-0.97
			c0,0-0.07-0.7-0.07-2.48c0-0.06,7.54,0.3,11.15,0.91c3.61,0.61,10.53,1.65,10.53,1.65s0.75-0.06,0.6-4.62c0,0,0.17-1.11-2.3-0.8
			C81.63,53.68,73,53.71,73,53.71l-11.27,0.07c0,0,0.04-0.79,0.17-2.07c0.01-0.11,0.45,0.03,0.45,0.03s1.63,1.4,2.74,1.02
			c0.04-0.01,14.17-8.9,16.08-10.8c0.08-0.08,0.23-0.85-0.42-1.17c-0.65-0.31-4.28-2.05-4.44-2.13S64.99,48.89,64.99,48.89
			s-0.46,0.37-0.8,0.37c-0.34,0-1.53-0.55-1.73-0.66c-0.2-0.1-0.93-0.49-0.93-0.49s-0.42-4.07-3.39-5.05
			c-2.97-0.98-10.34-0.13-10.34-0.13s-3.02,0.87-3.36,5.03c-0.03,0.38-2.39,1.4-2.93,1.37c-0.54-0.03-11.86-10.59-11.86-10.59
			s-4.31,1.94-4.81,2.27c-0.09,0.06-0.14,0.46-0.04,0.76c0.1,0.3,2.27,1.88,5.69,4.14c3.41,2.26,9.96,6.74,10.31,6.79
			c0.35,0.05,0.72,0.23,1.62-0.13s1.26-0.82,1.31-0.83c0.05-0.01,0.23-0.07,0.39,0.05c0.16,0.12,0.31,2.05,0.01,2.09
			c-0.3,0.03-20.78-0.46-21.76-0.14c-0.99,0.31-0.48,4.74-0.05,5.17c0.43,0.43,16.08-2.75,21.7-2.28c0.25,0.02,0.33,2.17,0.33,2.17
			s-0.12,0.5-4.81,0.95s-13.41,2.12-16.46,2.73c-0.28,0.06-0.57,0.14-0.62,0.81c-0.05,0.67,0.62,3.94,1.22,4.54
			c0.11,0.11,8.45-2.8,12.63-4.1c4.18-1.29,7.41-2.07,8.06-2.07c0.1,0,0.13,1.3,0.13,1.3l-15.62,6.7l-3.85,1.67
			c0,0-0.7,0.45-0.7,0.91c0,0.45,1.2,2.69,1.2,2.69s1.03,1.45,1.38,1.67c0.35,0.21,0.78-0.67,5.14-3.3
			c4.36-2.63,3.03-2.49,12.54-7.25c0.05-0.03,0.31,1.16,0.24,1.5c-0.03,0.15-2.3,1.98-2.3,1.98l-5.23,4.21l-5.5,4.39l-1.1,1.06
			c0,0-0.26,0.46-0.07,0.83c0.19,0.37,2.53,3.03,3.44,3.41c0.1,0.04,5.48-6.13,6.09-6.79c0.62-0.66,4.75-5.11,4.75-5.11
			s0.63-0.31,0.63,4.57c0,0.06,1.14,8.69,1.14,8.69s0.96,3.58,1.34,3.95c0.38,0.37,1.72,1.12,2.61,1.12
			C51.55,89.84,51.5,89.75,51.5,89.75z M83.08,73.01c0,0-0.56,1.03-0.99,3.6c-0.1,0.58,1.3,0.68,2.99,0.58
			c0.82-0.05,9.46-3.77,10.66-4.35c1.21-0.58,4.66-2.23,5.62-3.96c0,0-8.9,4.09-14.34,4.33C86.19,73.25,83.08,73.01,83.08,73.01z
			 M81.99,106.98c-0.23-0.05-1.24-1.24-2.67-10.42c0,0-1.6,7.42-0.63,12.26c0.05,0.23-3.71,4.77-0.51,9.95
			c0.37,0.6,4.83,5.18,9.42-1.1c0,0,3.16-4.35-1.25-8.76C86.26,108.81,85.24,107.63,81.99,106.98z M77.07,81.03
			c-0.26-0.09-2.6,2.77-2.6,2.77s-0.24,0.51,0.37,0.49c0.61-0.02,0.85-0.03,1.41,0.09c0.55,0.13,5.44-0.06,7.13-0.29
			s9.23-2.06,9.75-2.4c0.52-0.34,0.74-0.75,0.74-0.75S84.39,83.47,77.07,81.03z M85.96,63.26c-0.28,0.24-0.6,0.97-0.6,0.97
			s0.45,0.73-0.17,2.09c-0.63,1.36,0.77,0.95,3.14-0.07c2.37-1.01,9.87-5.06,16.71-11.89c0.17-0.17,0.21-0.72,0.21-0.72
			s-9.93,7.57-14.75,8.89C85.68,63.84,86.24,63.02,85.96,63.26z M60.18,112.42c-0.07-0.19-4.05,0.28-6.69,2.39
			c-0.23,0.19,2.05,5.68,6.32,8.88c4.26,3.19,5.68,3.6,6.26,3.56c0.58-0.04,1.71-4.58,1.71-4.58S62.94,119.78,60.18,112.42z
			 M57.2,91.89c0-0.23-1.44-0.04-1.44-0.04s-1.55-1.51-3.32,0.01c-0.11,0.09-2.42-0.44-2.78-0.25s-0.23,1.49-0.09,3.27
			s1.29,13.75,3.14,18.14c0,0,3.21-2.31,6.96-2.31C59.79,110.72,57.2,102.04,57.2,91.89z M28.8,80.94c-0.23,0-1.52,0.57-1.94,0.64
			c-6.97,1.27-14.75-0.56-14.75-0.56c4.12,1.87,7.97,2.9,12.35,3.28c4.38,0.39,7.13-0.08,7.09-0.24
			C31.28,83.01,29.03,80.94,28.8,80.94z M76.35,118.46c0,0-0.49,2.37-2.85,3.72s-4.11,0.85-4.37,0.83c-0.26-0.03-0.6,4.77-0.6,4.77
			s4.23,0.98,8.26-2.09c4.03-3.07,4.05-3.19,4.05-3.19S78.51,122.38,76.35,118.46z"/>
	</g>
</g>
</svg>
