<svg version="1.1" id="PK_app_logo" class="PK_app_logo" xmlns="http://www.w3.org/2000/svg" xmlns:xlink="http://www.w3.org/1999/xlink" x="0px" y="0px" viewBox="0 0 195.36 47.28" style="enable-background:new 0 0 195.36 47.28;" xml:space="preserve">
<style type="text/css">
	.PK_app_logo-color-primary{fill:#2cb172;}
	.PK_app_logo-color-neutral{fill:#ffffff;}
</style>
<g id="PK_app_logo-icon">
	<g>
		<path class="PK_app_logo-color-primary" d="M102.11,9.52C100.16,3.97,94.88,0,88.67,0C80.8,0,74.4,6.4,74.4,14.28s6.4,14.28,14.27,14.28
			c6.21,0,11.49-3.97,13.44-9.52h10.34v9.52h9.51v-9.52h4.76V9.52H102.11z M88.67,19.04c-2.62,0-4.76-2.14-4.76-4.76
			s2.14-4.76,4.76-4.76c2.62,0,4.76,2.14,4.76,4.76S91.29,19.04,88.67,19.04z"></path>
	</g>
</g>
<g id="PK_app_logo-text">
	<g>
		<path class="PK_app_logo-color-neutral" d="M11.47,33h-4.5v13.94h1.82v-5.82h2.68c1.63,0,2.84-0.38,3.63-1.15c0.79-0.77,1.19-1.73,1.19-2.89
			c0-1.2-0.41-2.18-1.23-2.94S13.04,33,11.47,33z M13.71,38.96c-0.48,0.44-1.23,0.66-2.24,0.66H8.79V34.5h2.68
			c1.97,0,2.96,0.86,2.96,2.58C14.43,37.89,14.19,38.52,13.71,38.96z M26.75,37.98c-0.35-0.63-0.87-1.15-1.58-1.56
			c-0.71-0.41-1.54-0.62-2.5-0.62c-0.97,0-1.86,0.23-2.65,0.7c-0.79,0.47-1.42,1.12-1.87,1.97c-0.45,0.85-0.68,1.83-0.68,2.95
			c0,1.11,0.23,2.09,0.68,2.96c0.45,0.87,1.07,1.54,1.86,2.02c0.79,0.48,1.67,0.72,2.64,0.72c0.95,0,1.78-0.21,2.49-0.63
			c0.71-0.42,1.25-0.95,1.61-1.59v2.04h1.84V35.98h-1.84V37.98z M26.25,43.61c-0.33,0.62-0.78,1.09-1.35,1.42
			c-0.57,0.33-1.19,0.49-1.87,0.49c-0.68,0-1.3-0.16-1.86-0.49c-0.56-0.33-1.01-0.8-1.34-1.42c-0.33-0.62-0.5-1.35-0.5-2.19
			c0-0.83,0.17-1.55,0.5-2.16c0.33-0.61,0.78-1.08,1.34-1.4s1.18-0.48,1.86-0.48c0.68,0,1.3,0.16,1.87,0.49
			c0.57,0.33,1.02,0.8,1.35,1.41c0.33,0.61,0.5,1.33,0.5,2.16C26.75,42.26,26.58,42.99,26.25,43.61z M37.33,41.41
			c-0.49-0.21-1.13-0.42-1.92-0.63c-0.63-0.17-1.12-0.33-1.47-0.47c-0.35-0.14-0.65-0.33-0.88-0.56c-0.23-0.23-0.35-0.53-0.35-0.89
			c0-0.45,0.19-0.82,0.58-1.1c0.39-0.28,0.91-0.42,1.56-0.42c0.71,0,1.27,0.17,1.69,0.52c0.42,0.35,0.65,0.81,0.69,1.38h1.82
			c-0.05-1.07-0.45-1.91-1.2-2.52c-0.75-0.61-1.73-0.92-2.94-0.92c-0.79,0-1.49,0.14-2.1,0.41c-0.61,0.27-1.09,0.64-1.42,1.11
			c-0.33,0.47-0.5,0.98-0.5,1.54c0,0.71,0.18,1.28,0.55,1.71c0.37,0.43,0.81,0.76,1.32,0.98c0.51,0.22,1.18,0.44,1.99,0.65
			c0.89,0.23,1.55,0.46,1.98,0.69c0.43,0.23,0.64,0.59,0.64,1.07c0,0.47-0.2,0.85-0.6,1.16c-0.4,0.31-0.95,0.46-1.64,0.46
			c-0.75,0-1.35-0.17-1.81-0.52c-0.46-0.35-0.72-0.79-0.77-1.34h-1.88c0.04,0.67,0.25,1.26,0.64,1.77c0.39,0.51,0.91,0.91,1.58,1.2
			c0.67,0.29,1.42,0.43,2.26,0.43c0.79,0,1.48-0.14,2.09-0.41c0.61-0.27,1.08-0.65,1.41-1.13c0.33-0.48,0.5-1.02,0.5-1.62
			c-0.01-0.67-0.2-1.21-0.55-1.62C38.25,41.92,37.82,41.61,37.33,41.41z M47.37,41.41c-0.49-0.21-1.13-0.42-1.92-0.63
			c-0.63-0.17-1.12-0.33-1.47-0.47c-0.35-0.14-0.65-0.33-0.88-0.56c-0.23-0.23-0.35-0.53-0.35-0.89c0-0.45,0.19-0.82,0.58-1.1
			c0.39-0.28,0.91-0.42,1.56-0.42c0.71,0,1.27,0.17,1.69,0.52c0.42,0.35,0.65,0.81,0.69,1.38h1.82c-0.05-1.07-0.45-1.91-1.2-2.52
			c-0.75-0.61-1.73-0.92-2.94-0.92c-0.79,0-1.49,0.14-2.1,0.41c-0.61,0.27-1.09,0.64-1.42,1.11c-0.33,0.47-0.5,0.98-0.5,1.54
			c0,0.71,0.18,1.28,0.55,1.71c0.37,0.43,0.81,0.76,1.32,0.98c0.51,0.22,1.18,0.44,1.99,0.65c0.89,0.23,1.55,0.46,1.98,0.69
			c0.43,0.23,0.64,0.59,0.64,1.07c0,0.47-0.2,0.85-0.6,1.16c-0.4,0.31-0.95,0.46-1.64,0.46c-0.75,0-1.35-0.17-1.81-0.52
			c-0.46-0.35-0.72-0.79-0.77-1.34h-1.88c0.04,0.67,0.25,1.26,0.64,1.77c0.39,0.51,0.91,0.91,1.58,1.2
			c0.67,0.29,1.42,0.43,2.26,0.43c0.79,0,1.48-0.14,2.09-0.41c0.61-0.27,1.08-0.65,1.41-1.13c0.33-0.48,0.5-1.02,0.5-1.62
			c-0.01-0.67-0.2-1.21-0.55-1.62C48.29,41.92,47.86,41.61,47.37,41.41z M61.67,45.2l-2.66-9.22h-1.86l-2.72,9.2l-2.52-9.2h-1.86
			l3.44,10.96h1.88l2.64-8.7l2.64,8.7h1.88l3.42-10.96h-1.8L61.67,45.2z M75.03,36.49c-0.84-0.46-1.78-0.69-2.82-0.69
			c-1.04,0-1.98,0.23-2.82,0.69c-0.84,0.46-1.5,1.12-1.99,1.98c-0.49,0.86-0.73,1.85-0.73,2.97c0,1.13,0.24,2.13,0.71,2.99
			c0.47,0.86,1.13,1.52,1.96,1.99c0.83,0.47,1.76,0.7,2.79,0.7c1.04,0,1.99-0.23,2.84-0.7c0.85-0.47,1.53-1.13,2.03-1.99
			c0.5-0.86,0.75-1.86,0.75-2.99c0-1.13-0.24-2.13-0.73-2.98C76.53,37.6,75.87,36.95,75.03,36.49z M75.36,43.68
			c-0.35,0.61-0.82,1.07-1.39,1.38c-0.57,0.31-1.19,0.46-1.84,0.46c-0.65,0-1.25-0.15-1.8-0.45c-0.55-0.3-0.98-0.76-1.31-1.37
			c-0.33-0.61-0.49-1.37-0.49-2.26c0-0.88,0.17-1.63,0.5-2.24c0.33-0.61,0.78-1.07,1.33-1.37c0.55-0.3,1.16-0.45,1.83-0.45
			c0.65,0,1.26,0.15,1.82,0.45s1.01,0.76,1.36,1.37c0.35,0.61,0.52,1.36,0.52,2.24S75.71,43.06,75.36,43.68z M81.57,37.76v-1.78
			h-1.82v10.96h1.82v-5.96c0-2.21,1.02-3.32,3.06-3.32h0.48v-1.88c-0.85,0-1.58,0.17-2.17,0.52C82.35,36.64,81.89,37.13,81.57,37.76
			z M95.41,37.94c-0.39-0.64-0.95-1.16-1.68-1.55C93,35.99,92.2,35.8,91.35,35.8c-0.99,0-1.88,0.23-2.67,0.7
			c-0.79,0.47-1.42,1.12-1.87,1.97c-0.45,0.85-0.68,1.83-0.68,2.95c0,1.11,0.23,2.09,0.68,2.96c0.45,0.87,1.08,1.54,1.87,2.02
			c0.79,0.48,1.68,0.72,2.65,0.72c0.95,0,1.77-0.21,2.48-0.63c0.71-0.42,1.24-0.96,1.6-1.61v2.06h1.84v-14.8h-1.84V37.94z
			 M94.91,43.61c-0.33,0.62-0.78,1.09-1.35,1.42c-0.57,0.33-1.19,0.49-1.87,0.49s-1.3-0.16-1.86-0.49c-0.56-0.33-1.01-0.8-1.34-1.42
			c-0.33-0.62-0.5-1.35-0.5-2.19c0-0.83,0.17-1.55,0.5-2.16c0.33-0.61,0.78-1.08,1.34-1.4s1.18-0.48,1.86-0.48s1.3,0.16,1.87,0.49
			c0.57,0.33,1.02,0.8,1.35,1.41c0.33,0.61,0.5,1.33,0.5,2.16C95.41,42.26,95.24,42.99,94.91,43.61z M105.87,40.4h6.26
			c-0.05,1.19-0.34,2.22-0.86,3.11c-0.52,0.89-1.21,1.57-2.08,2.05c-0.87,0.48-1.83,0.72-2.9,0.72c-1.11,0-2.11-0.26-3-0.77
			c-0.89-0.51-1.6-1.25-2.12-2.21c-0.52-0.96-0.78-2.08-0.78-3.36c0-1.28,0.26-2.4,0.78-3.36c0.52-0.96,1.23-1.7,2.12-2.22
			c0.89-0.52,1.89-0.78,3-0.78c1.27,0,2.36,0.31,3.29,0.94c0.93,0.63,1.59,1.47,1.99,2.52h1.04c-0.51-1.33-1.31-2.38-2.41-3.13
			c-1.1-0.75-2.4-1.13-3.91-1.13c-1.29,0-2.46,0.3-3.5,0.91c-1.04,0.61-1.85,1.45-2.44,2.54c-0.59,1.09-0.88,2.32-0.88,3.71
			c0,1.37,0.29,2.6,0.88,3.69c0.59,1.09,1.4,1.93,2.44,2.54c1.04,0.61,2.21,0.91,3.5,0.91c1.27,0,2.41-0.29,3.42-0.88
			c1.01-0.59,1.81-1.4,2.4-2.44c0.59-1.04,0.9-2.21,0.94-3.52v-0.6h-7.18V40.4z M122.8,36.61c-0.77-0.45-1.67-0.67-2.71-0.67
			c-1.03,0-1.94,0.22-2.74,0.67c-0.8,0.45-1.42,1.09-1.87,1.93c-0.45,0.84-0.67,1.83-0.67,2.96c0,1.13,0.23,2.12,0.68,2.97
			c0.45,0.85,1.08,1.5,1.88,1.95c0.8,0.45,1.71,0.68,2.72,0.68c1.35,0,2.46-0.34,3.34-1.03c0.88-0.69,1.43-1.58,1.64-2.69h-0.94
			c-0.19,0.91-0.64,1.62-1.36,2.15c-0.72,0.53-1.61,0.79-2.68,0.79c-0.77,0-1.49-0.17-2.14-0.5c-0.65-0.33-1.18-0.83-1.58-1.5
			c-0.4-0.67-0.61-1.49-0.64-2.46h9.38c0.03-0.24,0.04-0.6,0.04-1.08c0-0.85-0.2-1.65-0.6-2.39
			C124.15,37.65,123.57,37.05,122.8,36.61z M115.73,41.12c0.03-0.96,0.24-1.77,0.65-2.44c0.41-0.67,0.93-1.16,1.58-1.49
			c0.65-0.33,1.35-0.49,2.11-0.49s1.47,0.16,2.12,0.49c0.65,0.33,1.17,0.82,1.55,1.49c0.38,0.67,0.55,1.48,0.51,2.44H115.73z
			 M132.37,35.86c-0.93,0-1.76,0.22-2.47,0.65c-0.71,0.43-1.22,1.06-1.53,1.87v-2.3h-0.9v10.86h0.9v-5.86
			c0-1.47,0.35-2.57,1.05-3.32c0.7-0.75,1.64-1.12,2.81-1.12c1.12,0,2.01,0.34,2.66,1.03c0.65,0.69,0.98,1.68,0.98,2.97v6.3h0.88
			v-6.36c0-1.56-0.41-2.74-1.22-3.53C134.72,36.25,133.66,35.86,132.37,35.86z M146.96,36.61c-0.77-0.45-1.67-0.67-2.71-0.67
			c-1.03,0-1.94,0.22-2.74,0.67c-0.8,0.45-1.42,1.09-1.87,1.93c-0.45,0.84-0.67,1.83-0.67,2.96c0,1.13,0.23,2.12,0.68,2.97
			c0.45,0.85,1.08,1.5,1.88,1.95c0.8,0.45,1.71,0.68,2.72,0.68c1.35,0,2.46-0.34,3.34-1.03c0.88-0.69,1.43-1.58,1.64-2.69h-0.94
			c-0.19,0.91-0.64,1.62-1.36,2.15c-0.72,0.53-1.61,0.79-2.68,0.79c-0.77,0-1.49-0.17-2.14-0.5c-0.65-0.33-1.18-0.83-1.58-1.5
			c-0.4-0.67-0.61-1.49-0.64-2.46h9.38c0.03-0.24,0.04-0.6,0.04-1.08c0-0.85-0.2-1.65-0.6-2.39S147.73,37.05,146.96,36.61z
			 M139.89,41.12c0.03-0.96,0.24-1.77,0.65-2.44c0.41-0.67,0.93-1.16,1.58-1.49c0.65-0.33,1.35-0.49,2.11-0.49s1.47,0.16,2.12,0.49
			c0.65,0.33,1.17,0.82,1.55,1.49c0.38,0.67,0.55,1.48,0.51,2.44H139.89z M152.53,38.32v-2.24h-0.9v10.86h0.9v-6.26
			c0-1.37,0.35-2.36,1.06-2.97c0.71-0.61,1.59-0.91,2.66-0.91h0.3v-0.94c-1.05,0-1.92,0.21-2.6,0.63
			C153.27,36.91,152.8,37.52,152.53,38.32z M167.51,38.92c-0.32-0.87-0.88-1.58-1.68-2.14s-1.77-0.84-2.92-0.84
			c-1.01,0-1.92,0.23-2.71,0.68c-0.79,0.45-1.41,1.1-1.86,1.94c-0.45,0.84-0.67,1.82-0.67,2.94c0,1.12,0.22,2.1,0.67,2.95
			c0.45,0.85,1.07,1.5,1.86,1.96c0.79,0.46,1.7,0.69,2.71,0.69c1.13,0,2.1-0.28,2.91-0.85c0.81-0.57,1.37-1.29,1.69-2.17v2.86h0.9
			V36.08h-0.9V38.92z M166.93,44.03c-0.39,0.73-0.92,1.29-1.61,1.68c-0.69,0.39-1.45,0.59-2.29,0.59c-0.87,0-1.64-0.19-2.31-0.58
			c-0.67-0.39-1.2-0.94-1.57-1.66c-0.37-0.72-0.56-1.57-0.56-2.56c0-0.99,0.19-1.84,0.56-2.56c0.37-0.72,0.89-1.27,1.56-1.65
			c0.67-0.38,1.44-0.57,2.32-0.57c0.84,0,1.6,0.2,2.28,0.59c0.68,0.39,1.22,0.95,1.61,1.68c0.39,0.73,0.59,1.56,0.59,2.51
			C167.51,42.46,167.32,43.3,166.93,44.03z M172.63,33.32h-0.9v2.76h-1.64v0.78h1.64v7.18c0,1.04,0.22,1.78,0.67,2.23
			c0.45,0.45,1.14,0.67,2.09,0.67h1.36v-0.8h-1.22c-0.75,0-1.27-0.15-1.56-0.45c-0.29-0.3-0.44-0.85-0.44-1.65v-7.18h3.22v-0.78
			h-3.22V33.32z M185.39,36.61c-0.81-0.45-1.73-0.67-2.74-0.67c-1.01,0-1.93,0.22-2.75,0.67c-0.82,0.45-1.46,1.09-1.93,1.94
			c-0.47,0.85-0.7,1.83-0.7,2.95c0,1.13,0.23,2.12,0.69,2.97c0.46,0.85,1.1,1.5,1.91,1.95c0.81,0.45,1.73,0.68,2.74,0.68
			c1.01,0,1.93-0.23,2.75-0.68c0.82-0.45,1.46-1.1,1.93-1.95c0.47-0.85,0.7-1.84,0.7-2.97c0-1.13-0.23-2.12-0.69-2.96
			C186.84,37.7,186.2,37.05,185.39,36.61z M186.47,44.16c-0.41,0.72-0.96,1.26-1.65,1.61c-0.69,0.35-1.42,0.53-2.21,0.53
			c-0.79,0-1.52-0.18-2.19-0.53c-0.67-0.35-1.21-0.89-1.62-1.61c-0.41-0.72-0.61-1.61-0.61-2.66c0-1.04,0.21-1.92,0.62-2.64
			c0.41-0.72,0.96-1.26,1.63-1.61c0.67-0.35,1.4-0.53,2.19-0.53c0.79,0,1.52,0.18,2.2,0.53c0.68,0.35,1.23,0.89,1.64,1.61
			c0.41,0.72,0.62,1.6,0.62,2.64C187.09,42.55,186.88,43.44,186.47,44.16z M192.65,36.49c-0.68,0.42-1.15,1.03-1.42,1.83v-2.24h-0.9
			v10.86h0.9v-6.26c0-1.37,0.35-2.36,1.06-2.97c0.71-0.61,1.59-0.91,2.66-0.91h0.3v-0.94C194.2,35.86,193.33,36.07,192.65,36.49z"></path>
	</g>
</g>
<g id="PK_app_logo-PK">
	<g>
		<path class="PK_app_logo-color-primary" d="M3.53,32.57C3.95,31.71,4.38,30.86,4.8,30v0H3.89c-0.4,0.83-0.79,1.67-1.19,2.5h0V30H1.62
			c-0.26,0-0.52-0.01-0.73,0.05c-0.07,0.02-0.13,0.04-0.19,0.06c-0.22,0.09-0.38,0.24-0.5,0.43c-0.08,0.13-0.13,0.28-0.17,0.46
			c-0.01,0.07-0.02,0.14-0.03,0.21c0,0.03,0,0.07-0.01,0.1c0,0.03,0,0.05,0,0.08c0,0.05,0,0.11,0,0.16v0.53c0,0.05,0,0.1,0,0.15
			c0,0.02,0,0.05,0,0.07c0.01,0.03,0,0.06,0.01,0.09c0,0.03,0.01,0.07,0.01,0.1l0.02,0.13c0.02,0.08,0.04,0.16,0.07,0.24
			c0.15,0.37,0.4,0.58,0.81,0.68c0.24,0.06,0.56,0.04,0.86,0.04v2.16H2.7v-1.78c0.09-0.17,0.18-0.35,0.28-0.52h0
			c0.3,0.77,0.59,1.53,0.89,2.3H4.8C4.38,34.7,3.95,33.63,3.53,32.57z M1.78,32.77H1.44c-0.08,0-0.16,0-0.22-0.01
			c-0.07-0.02-0.12-0.04-0.17-0.08C1.03,32.66,1.01,32.64,1,32.62c-0.08-0.11-0.09-0.27-0.09-0.46v-0.64c0-0.25,0-0.43,0.11-0.57
			c0.04-0.06,0.11-0.09,0.19-0.11c0.02-0.01,0.05-0.01,0.08-0.01c0.02,0,0.05,0,0.07,0h0.42V32.77z"></path>
	</g>
</g>
</svg>