<?xml version="1.0" encoding="utf-8"?>
<!-- Generator: Adobe Illustrator 24.0.1, SVG Export Plug-In . SVG Version: 6.00 Build 0)  -->
<svg version="1.1" id="Layer_1" xmlns="http://www.w3.org/2000/svg" xmlns:xlink="http://www.w3.org/1999/xlink" x="0px" y="0px"
	 viewBox="0 0 1250.4 979.2" style="enable-background:new 0 0 1250.4 979.2;" xml:space="preserve">
<style type="text/css">
	.st0{fill:#7FB2FE;}
	.st1{fill:#2E4271;}
	.st2{fill:#1B294C;}
	.st3{fill:#6582C7;}
	.st4{fill:#6583C7;}
	.st5{fill:#FEFEFE;}
</style>
<g>
	<path class="st0" d="M625.2,0.07c0.97,1.08,1.9,2.21,2.93,3.24C662.78,38,697.45,72.67,732.11,107.34c3.21,3.21,3.2,3.21-1.08,4.54
		c-21.18,6.59-34.38,20.89-40.53,42.08c-1.61-0.2-2.31-1.62-3.28-2.58c-19.62-19.57-39.25-39.13-58.73-58.84
		c-2.61-2.64-4-3.04-6.8-0.14c-8.77,9.11-17.9,17.88-26.89,26.78c-1.45-0.19-2.28-1.29-3.2-2.21
		c-12.86-12.84-25.72-25.7-38.54-38.59c-1.06-1.07-2.64-1.96-2.24-3.91c0.97-1.09,1.89-2.22,2.92-3.25
		c22.6-22.63,45.22-45.24,67.81-67.87c1.02-1.02,1.9-2.19,2.84-3.29C624.67,0.07,624.93,0.07,625.2,0.07z"/>
	<path class="st1" d="M1040.59,354.34c-1.44,1.51-2.38,2.55-3.37,3.54C900.75,494.5,764.27,631.1,627.86,767.77
		c-2.31,2.31-3.38,2.43-5.76,0.04C485.57,631.06,348.98,494.39,212.37,357.72c-0.92-0.92-2-1.68-3.03-2.53
		c1.34-1.6,2.62-1.07,3.7-1.07c32.11-0.03,64.21,0.02,96.32-0.11c2.92-0.01,4.64,1.27,6.47,3.1
		C417.74,459.14,519.69,561.11,621.52,663.2c2.89,2.9,4.16,2.67,6.9-0.07c101.92-102.18,203.94-204.27,305.92-306.39
		c1.54-1.55,2.96-2.7,5.43-2.69c32.51,0.09,65.01,0.06,97.52,0.07C1038.15,354.11,1039.03,354.23,1040.59,354.34z"/>
	<path class="st2" d="M370.62,724.01c29.44-5.29,46.59-22.5,52.12-53.05c1.35,1.92,2.03,3.26,3.05,4.28
		c65.35,65.45,130.75,130.85,196.04,196.35c2.6,2.61,3.84,2.46,6.34-0.05c32.59-32.81,65.33-65.47,97.92-98.28
		c2.38-2.4,3.49-2.29,5.79,0.03c15.45,15.65,31.02,31.18,46.68,46.61c2.12,2.09,2.14,3.07,0.01,5.2
		c-50.37,50.27-100.67,100.61-150.89,151.04c-2.33,2.34-3.42,1.94-5.49-0.14c-82.85-83-165.76-165.95-248.66-248.9
		C372.6,726.18,371.73,725.2,370.62,724.01z"/>
	<path class="st2" d="M1248.54,355.45c-1.17,0.86-2.47,1.58-3.49,2.6c-101.61,101.67-203.22,203.36-304.72,305.14
		c-2.81,2.82-4.07,2.55-6.68-0.11c-15.11-15.4-30.41-30.63-45.73-45.84c-2.03-2.01-2.62-3.13-0.21-5.55
		c85.09-85.03,170.1-170.15,255.11-255.28c1.34-1.35,2.59-2.39,4.75-2.39c32.9,0.07,65.79,0.05,98.69,0.06c0.5,0,1,0.13,1.5,0.19
		C1248.02,354.68,1248.28,355.07,1248.54,355.45z"/>
	<path class="st0" d="M698.02,399.99c-0.15-1.98-1.83-2.87-3.01-4.05c-76.7-76.79-153.4-153.57-230.2-230.26
		c-2.45-2.45-2.17-3.52,0.1-5.74c13.8-13.5,27.43-27.16,41.12-40.77c1.85,0.38,2.83,1.92,4.03,3.12
		c11.42,11.38,22.82,22.77,34.18,34.21c2.26,2.28,4.64,4.37,7.42,5.99c0.15,1.66,1.52,2.45,2.53,3.46
		c47.24,47.29,94.49,94.57,141.74,141.85c29.17,29.19,58.33,58.39,87.51,87.57c1.34,1.35,2.8,2.58,4.2,3.87
		c-1.46,1.54-2.87,3.13-4.37,4.62c-13.19,13.16-26.4,26.31-39.61,39.47c-1.83-0.39-2.83-1.89-4.03-3.09
		c-12.19-12.16-24.37-24.34-36.52-36.55C701.59,402.17,699.98,400.86,698.02,399.99z"/>
	<path class="st0" d="M699.67,487.37c-24.28,24.32-48.6,48.61-72.78,73.03c-2.35,2.37-3.23,0.75-4.62-0.64
		c-33.24-33.26-66.49-66.52-99.74-99.78c-19.03-19.03-38.05-38.06-57.06-57.12c-0.98-0.98-2.34-1.72-2.8-3.63
		c7.98,0,15.78,0.04,23.59-0.03c1.64-0.01,2.33,1.03,3.13,2.08c5.75,7.52,12.12,14.49,18.56,21.41c1.69,1.82,2.41,1.65,3.95,0.07
		c6.6-6.78,12.84-13.88,18.55-21.41c1.19-1.57,2.45-1.93,4.29-2.21c11.26-1.67,19.46,2.18,27.44,10.73
		c19.35,20.73,39.94,40.31,59.9,60.47c2.37,2.39,3.61,2.32,5.91-0.03c8.76-8.93,17.75-17.63,26.66-26.42
		c1.26-0.51,2.05,0.35,2.77,1.07C671.54,459.08,685.8,473.03,699.67,487.37z"/>
	<path class="st2" d="M131.05,483.74C87.98,440.67,44.97,397.66,1.88,354.57c0.62-0.98,1.8-0.45,2.74-0.45
		c32.36-0.03,64.72,0,97.07-0.08c2.36-0.01,3.94,0.81,5.54,2.42c24.25,24.35,48.51,48.69,72.89,72.91c2.28,2.27,2.08,3.38-0.07,5.51
		C163.58,451.17,147.22,467.58,131.05,483.74z"/>
	<path class="st2" d="M214.84,568.02c29.45-5.42,46.49-22.55,51.74-51.55c1.31,0.31,1.99,1.56,2.9,2.46
		c22.13,22.12,44.2,44.29,66.39,66.35c2.22,2.21,2.69,3.34,0.18,5.82c-15.74,15.51-31.28,31.23-46.88,46.88
		c-1.33,1.33-2.16,2.67-4.31,0.51c-22.87-23.07-45.87-46.01-68.83-68.99C215.67,569.13,215.38,568.69,214.84,568.02z"/>
	<path class="st3" d="M699.67,487.37c-1.88-0.28-2.87-1.81-4.07-3.01c-12.56-12.54-25.09-25.1-37.65-37.64
		c-1.02-1.02-2.19-1.89-3.29-2.83c0.41-0.67,0.71-1.44,1.25-1.98c14.02-13.99,28.06-27.96,42.1-41.93c1.15-0.77,2.08-0.66,3.12,0.39
		c14.15,14.34,28.34,28.64,42.52,42.96C728.99,458.01,714.33,472.69,699.67,487.37z"/>
	<path class="st3" d="M551.65,162.49c-1.94,1.07-3.11-0.58-4.07-1.54c-13.91-13.87-27.73-27.83-41.56-41.78
		c14.69-15.14,29.48-30.18,44.8-44.7c8.73,8.86,17.48,17.71,26.2,26.57c5.94,6.04,11.86,12.09,17.78,18.14
		c-9.87,9.97-19.72,19.95-29.6,29.9C560.72,153.59,556.17,158.03,551.65,162.49z"/>
	<path class="st2" d="M477.2,347.86c0.54-13.12,6.59-22.95,18.44-28.51c12.69-5.95,25.06-4.43,35.83,4.61
		c10.07,8.45,13.48,19.55,10.13,32.35c-3.64,13.92-11.62,25.57-20.1,36.88c-3.11,4.15-6.55,8.05-9.79,12.1
		c-1.09,1.36-1.83,1.91-3.29,0.19c-11.31-13.33-21.88-27.13-28.32-43.6C478.34,357.42,477.13,352.78,477.2,347.86z"/>
	<path class="st2" d="M792.47,167.28c-0.01,25.27-20.43,45.6-45.75,45.56c-25.19-0.04-45.64-20.61-45.57-45.82
		c0.07-25.09,20.71-45.43,46.03-45.36C772.18,121.74,792.48,142.19,792.47,167.28z"/>
	<path class="st4" d="M254.42,510.54c-0.06,25.29-20.43,45.49-45.81,45.44c-25.13-0.05-45.53-20.67-45.45-45.93
		c0.08-25.04,20.78-45.34,46.14-45.24C234.25,464.91,254.49,485.41,254.42,510.54z"/>
	<path class="st4" d="M410.3,666.34c0.01,25.3-20.32,45.63-45.64,45.61c-25.18-0.01-45.67-20.56-45.63-45.75
		c0.04-24.92,20.57-45.38,45.57-45.42C389.93,620.75,410.29,641.05,410.3,666.34z"/>
	<path class="st4" d="M878.75,718.32c0.02,25.31-20.31,45.64-45.62,45.63c-25.18-0.01-45.68-20.55-45.64-45.74
		c0.04-24.92,20.56-45.39,45.55-45.43C858.36,672.74,878.73,693.03,878.75,718.32z"/>
	<path class="st5" d="M509.74,359.28c-6.36-0.09-11.55-5.22-11.51-11.38c0.04-6.37,5.34-11.35,12-11.26
		c6.41,0.09,11.49,5.12,11.47,11.35C521.67,354.37,516.37,359.37,509.74,359.28z"/>
	<path class="st5" d="M746.9,130.74c20.59,0.36,36.82,16.74,36.58,36.94c-0.24,20.01-17.15,36.49-37.03,36.08
		c-20.33-0.41-36.47-16.9-36.16-36.94C710.59,146.8,727.23,130.4,746.9,130.74z"/>
	<path class="st5" d="M245.49,510.58c-0.04,19.94-16.8,36.51-36.81,36.39c-20-0.12-36.68-16.92-36.48-36.74
		c0.2-19.9,17.04-36.72,36.44-36.39C229.34,474.2,245.53,490.33,245.49,510.58z"/>
	<path class="st5" d="M401.37,666.58c-0.05,19.93-16.86,36.52-36.84,36.36c-20.03-0.16-36.69-16.97-36.45-36.77
		c0.24-19.75,16.53-36.17,36.07-36.36C384.65,629.62,401.42,646.19,401.37,666.58z"/>
	<path class="st5" d="M869.81,718.32c0.01,20.03-16.41,36.46-36.59,36.62c-19.85,0.15-36.64-16.56-36.71-36.52
		c-0.06-19.71,16.67-36.64,36.21-36.61C853.22,681.83,869.8,698.16,869.81,718.32z"/>
	<path class="st2" d="M724.07,167.43c-0.11-12.69,9.94-22.82,22.71-22.9c12.45-0.08,22.76,9.95,22.98,22.33
		c0.22,12.52-10,22.96-22.62,23.1C734.39,190.11,724.17,180.13,724.07,167.43z"/>
	<path class="st4" d="M208.39,533.01c-12.85-0.21-22.5-10.27-22.24-23.2c0.26-12.77,10.37-22.28,23.41-22.03
		c12.4,0.24,22.49,10.68,22.22,23C231.5,523.39,221.16,533.22,208.39,533.01z"/>
	<path class="st4" d="M364.71,643.76c12.7-0.03,23.01,10.15,22.95,22.67c-0.06,12.42-10.17,22.49-22.65,22.57
		c-12.98,0.08-22.91-9.62-22.98-22.47C341.96,653.65,351.78,643.79,364.71,643.76z"/>
	<path class="st4" d="M810.48,718.4c-0.02-12.87,9.84-22.66,22.79-22.65c12.53,0.01,22.71,9.99,22.84,22.39
		c0.13,12.55-10.11,22.82-22.77,22.85C820.36,741.02,810.49,731.26,810.48,718.4z"/>
</g>
</svg>
