<?xml version="1.0" encoding="utf-8"?>
<!-- Generator: Adobe Illustrator 24.0.1, SVG Export Plug-In . SVG Version: 6.00 Build 0)  -->
<svg version="1.1" id="Group_1_copy_4_1_" xmlns="http://www.w3.org/2000/svg" xmlns:xlink="http://www.w3.org/1999/xlink" x="0px"
	 y="0px" viewBox="0 0 157.2 52.32" style="enable-background:new 0 0 157.2 52.32;" xml:space="preserve">
<style type="text/css">
	.st0{fill:#FFFFFF;}
	.st1{fill:#CC0000;}
</style>
<g id="SchoolManager">
	<g>
		<path class="st0" d="M14.83,39.91c-0.56-0.25-1.3-0.5-2.22-0.75c-0.76-0.21-1.35-0.4-1.77-0.57c-0.42-0.17-0.77-0.41-1.06-0.73
			c-0.29-0.32-0.43-0.73-0.43-1.24c0-0.71,0.24-1.26,0.72-1.65c0.48-0.39,1.1-0.59,1.86-0.59c0.81,0,1.47,0.2,1.96,0.61
			c0.49,0.41,0.77,0.88,0.84,1.41h2c-0.11-1.08-0.58-1.95-1.41-2.6c-0.83-0.65-1.9-0.98-3.21-0.98c-0.91,0-1.71,0.16-2.41,0.48
			c-0.7,0.32-1.24,0.77-1.63,1.36c-0.39,0.59-0.58,1.26-0.58,2.02c0,0.87,0.2,1.56,0.59,2.07c0.39,0.51,0.87,0.89,1.42,1.13
			c0.55,0.24,1.29,0.48,2.21,0.72c0.75,0.2,1.34,0.39,1.78,0.56c0.44,0.17,0.81,0.43,1.1,0.76c0.29,0.33,0.44,0.77,0.44,1.3
			c0,0.68-0.25,1.24-0.75,1.67c-0.5,0.43-1.18,0.65-2.05,0.65c-0.91,0-1.6-0.22-2.07-0.67c-0.47-0.45-0.74-1-0.81-1.65H7.41
			c0.01,0.76,0.23,1.43,0.64,2.01c0.41,0.58,0.98,1.03,1.71,1.36c0.73,0.33,1.55,0.49,2.47,0.49c0.96,0,1.79-0.19,2.5-0.56
			c0.71-0.37,1.24-0.86,1.6-1.46c0.36-0.6,0.54-1.24,0.54-1.92c0-0.88-0.2-1.58-0.6-2.09C15.87,40.53,15.39,40.15,14.83,39.91z
			 M23.81,37.34c0.8,0,1.47,0.19,2.01,0.58c0.54,0.39,0.9,0.91,1.09,1.58h1.96c-0.28-1.16-0.86-2.07-1.73-2.72
			c-0.87-0.65-1.98-0.98-3.33-0.98c-1.04,0-1.96,0.23-2.77,0.7c-0.81,0.47-1.44,1.12-1.89,1.97c-0.45,0.85-0.68,1.84-0.68,2.97
			c0,1.15,0.23,2.15,0.68,3c0.45,0.85,1.08,1.51,1.89,1.98c0.81,0.47,1.73,0.7,2.77,0.7c1.32,0,2.42-0.34,3.3-1.01
			c0.88-0.67,1.47-1.57,1.76-2.69h-1.96c-0.2,0.69-0.57,1.23-1.1,1.6c-0.53,0.37-1.2,0.56-2,0.56c-1.04,0-1.88-0.36-2.52-1.08
			c-0.64-0.72-0.96-1.74-0.96-3.06c0-1.31,0.32-2.32,0.96-3.03C21.93,37.69,22.77,37.34,23.81,37.34z M38.57,36.31
			c-0.67-0.35-1.41-0.53-2.24-0.53c-0.79,0-1.5,0.15-2.13,0.46c-0.63,0.31-1.13,0.74-1.49,1.3v-5.4h-1.82v14.8h1.82v-6.06
			c0-1.15,0.28-2.02,0.85-2.62c0.57-0.6,1.33-0.9,2.29-0.9c0.95,0,1.69,0.29,2.24,0.87c0.55,0.58,0.82,1.42,0.82,2.51v6.2h1.8v-6.46
			c0-1.01-0.19-1.87-0.57-2.58C39.76,37.19,39.24,36.66,38.57,36.31z M50.97,36.49c-0.84-0.46-1.78-0.69-2.82-0.69
			c-1.04,0-1.98,0.23-2.82,0.69c-0.84,0.46-1.5,1.12-1.99,1.98c-0.49,0.86-0.73,1.85-0.73,2.97c0,1.13,0.24,2.13,0.71,2.99
			c0.47,0.86,1.13,1.52,1.96,1.99c0.83,0.47,1.76,0.7,2.79,0.7c1.04,0,1.99-0.23,2.84-0.7c0.85-0.47,1.53-1.13,2.03-1.99
			s0.75-1.86,0.75-2.99c0-1.13-0.24-2.13-0.73-2.98C52.47,37.6,51.81,36.95,50.97,36.49z M51.3,43.68
			c-0.35,0.61-0.82,1.07-1.39,1.38c-0.57,0.31-1.19,0.46-1.84,0.46c-0.65,0-1.25-0.15-1.8-0.45c-0.55-0.3-0.98-0.76-1.31-1.37
			c-0.33-0.61-0.49-1.37-0.49-2.26c0-0.88,0.17-1.63,0.5-2.24c0.33-0.61,0.78-1.07,1.33-1.37c0.55-0.3,1.16-0.45,1.83-0.45
			c0.65,0,1.26,0.15,1.82,0.45c0.56,0.3,1.01,0.76,1.36,1.37c0.35,0.61,0.52,1.36,0.52,2.24S51.65,43.06,51.3,43.68z M63.37,36.49
			c-0.84-0.46-1.78-0.69-2.82-0.69c-1.04,0-1.98,0.23-2.82,0.69c-0.84,0.46-1.5,1.12-1.99,1.98c-0.49,0.86-0.73,1.85-0.73,2.97
			c0,1.13,0.24,2.13,0.71,2.99c0.47,0.86,1.13,1.52,1.96,1.99c0.83,0.47,1.76,0.7,2.79,0.7c1.04,0,1.99-0.23,2.84-0.7
			c0.85-0.47,1.53-1.13,2.03-1.99s0.75-1.86,0.75-2.99c0-1.13-0.24-2.13-0.73-2.98C64.87,37.6,64.21,36.95,63.37,36.49z M63.7,43.68
			c-0.35,0.61-0.82,1.07-1.39,1.38c-0.57,0.31-1.19,0.46-1.84,0.46c-0.65,0-1.25-0.15-1.8-0.45c-0.55-0.3-0.98-0.76-1.31-1.37
			c-0.33-0.61-0.49-1.37-0.49-2.26c0-0.88,0.17-1.63,0.5-2.24c0.33-0.61,0.78-1.07,1.33-1.37c0.55-0.3,1.16-0.45,1.83-0.45
			c0.65,0,1.26,0.15,1.82,0.45c0.56,0.3,1.01,0.76,1.36,1.37c0.35,0.61,0.52,1.36,0.52,2.24S64.05,43.06,63.7,43.68z M68.09,46.94
			h1.82v-14.8h-1.82V46.94z M79.27,45.76l-5.6-12.56h-0.96v13.74h0.9V35.08l5.3,11.86h0.72l5.28-11.86v11.86h0.9V33.2h-0.94
			L79.27,45.76z M97.99,38.92c-0.32-0.87-0.88-1.58-1.68-2.14c-0.8-0.56-1.77-0.84-2.92-0.84c-1.01,0-1.92,0.23-2.71,0.68
			c-0.79,0.45-1.41,1.1-1.86,1.94c-0.45,0.84-0.67,1.82-0.67,2.94c0,1.12,0.22,2.1,0.67,2.95c0.45,0.85,1.07,1.5,1.86,1.96
			c0.79,0.46,1.7,0.69,2.71,0.69c1.13,0,2.1-0.28,2.91-0.85c0.81-0.57,1.37-1.29,1.69-2.17v2.86h0.9V36.08h-0.9V38.92z M97.41,44.03
			c-0.39,0.73-0.92,1.29-1.61,1.68c-0.69,0.39-1.45,0.59-2.29,0.59c-0.87,0-1.64-0.19-2.31-0.58c-0.67-0.39-1.2-0.94-1.57-1.66
			c-0.37-0.72-0.56-1.57-0.56-2.56c0-0.99,0.19-1.84,0.56-2.56c0.37-0.72,0.89-1.27,1.56-1.65c0.67-0.38,1.44-0.57,2.32-0.57
			c0.84,0,1.6,0.2,2.28,0.59c0.68,0.39,1.22,0.95,1.61,1.68c0.39,0.73,0.59,1.56,0.59,2.51C97.99,42.46,97.8,43.3,97.41,44.03z
			 M106.67,35.86c-0.93,0-1.76,0.22-2.47,0.65c-0.71,0.43-1.22,1.06-1.53,1.87v-2.3h-0.9v10.86h0.9v-5.86
			c0-1.47,0.35-2.57,1.05-3.32c0.7-0.75,1.64-1.12,2.81-1.12c1.12,0,2.01,0.34,2.66,1.03c0.65,0.69,0.98,1.68,0.98,2.97v6.3h0.88
			v-6.36c0-1.56-0.41-2.74-1.22-3.53C109.02,36.25,107.96,35.86,106.67,35.86z M123.11,38.92c-0.32-0.87-0.88-1.58-1.68-2.14
			s-1.77-0.84-2.92-0.84c-1.01,0-1.92,0.23-2.71,0.68c-0.79,0.45-1.41,1.1-1.86,1.94c-0.45,0.84-0.67,1.82-0.67,2.94
			c0,1.12,0.22,2.1,0.67,2.95c0.45,0.85,1.07,1.5,1.86,1.96c0.79,0.46,1.7,0.69,2.71,0.69c1.13,0,2.1-0.28,2.91-0.85
			c0.81-0.57,1.37-1.29,1.69-2.17v2.86h0.9V36.08h-0.9V38.92z M122.53,44.03c-0.39,0.73-0.92,1.29-1.61,1.68
			c-0.69,0.39-1.45,0.59-2.29,0.59c-0.87,0-1.64-0.19-2.31-0.58c-0.67-0.39-1.2-0.94-1.57-1.66c-0.37-0.72-0.56-1.57-0.56-2.56
			c0-0.99,0.19-1.84,0.56-2.56c0.37-0.72,0.89-1.27,1.56-1.65c0.67-0.38,1.44-0.57,2.32-0.57c0.84,0,1.6,0.2,2.28,0.59
			c0.68,0.39,1.22,0.95,1.61,1.68c0.39,0.73,0.59,1.56,0.59,2.51C123.11,42.46,122.92,43.3,122.53,44.03z M136.17,38.9
			c-0.32-0.87-0.88-1.58-1.68-2.13c-0.8-0.55-1.77-0.83-2.92-0.83c-1.01,0-1.92,0.23-2.71,0.68c-0.79,0.45-1.41,1.1-1.86,1.94
			c-0.45,0.84-0.67,1.82-0.67,2.94c0,1.12,0.22,2.1,0.67,2.95c0.45,0.85,1.07,1.5,1.86,1.96c0.79,0.46,1.7,0.69,2.71,0.69
			c1.13,0,2.1-0.28,2.91-0.85c0.81-0.57,1.37-1.28,1.69-2.15v3.18c0,0.85-0.18,1.6-0.53,2.23c-0.35,0.63-0.84,1.12-1.45,1.46
			c-0.61,0.34-1.3,0.51-2.06,0.51c-1.09,0-2.01-0.26-2.74-0.77c-0.73-0.51-1.23-1.2-1.5-2.07h-0.9c0.28,1.11,0.87,1.99,1.76,2.64
			c0.89,0.65,2.02,0.98,3.38,0.98c0.92,0,1.75-0.2,2.5-0.61c0.75-0.41,1.34-0.99,1.78-1.74c0.44-0.75,0.66-1.63,0.66-2.63v-11.2
			h-0.9V38.9z M135.59,44.03c-0.39,0.73-0.92,1.29-1.61,1.68c-0.69,0.39-1.45,0.59-2.29,0.59c-0.87,0-1.64-0.19-2.31-0.58
			c-0.67-0.39-1.2-0.94-1.57-1.66c-0.37-0.72-0.56-1.57-0.56-2.56c0-0.99,0.19-1.84,0.56-2.56c0.37-0.72,0.89-1.27,1.56-1.65
			c0.67-0.38,1.44-0.57,2.32-0.57c0.84,0,1.6,0.2,2.28,0.59c0.68,0.39,1.22,0.95,1.61,1.68c0.39,0.73,0.59,1.56,0.59,2.51
			C136.17,42.46,135.98,43.3,135.59,44.03z M147.38,36.61c-0.77-0.45-1.67-0.67-2.71-0.67c-1.03,0-1.94,0.22-2.74,0.67
			c-0.8,0.45-1.42,1.09-1.87,1.93c-0.45,0.84-0.67,1.83-0.67,2.96c0,1.13,0.23,2.12,0.68,2.97c0.45,0.85,1.08,1.5,1.88,1.95
			c0.8,0.45,1.71,0.68,2.72,0.68c1.35,0,2.46-0.34,3.34-1.03c0.88-0.69,1.43-1.58,1.64-2.69h-0.94c-0.19,0.91-0.64,1.62-1.36,2.15
			c-0.72,0.53-1.61,0.79-2.68,0.79c-0.77,0-1.49-0.17-2.14-0.5c-0.65-0.33-1.18-0.83-1.58-1.5c-0.4-0.67-0.61-1.49-0.64-2.46h9.38
			c0.03-0.24,0.04-0.6,0.04-1.08c0-0.85-0.2-1.65-0.6-2.39C148.73,37.65,148.15,37.05,147.38,36.61z M140.31,41.12
			c0.03-0.96,0.24-1.77,0.65-2.44c0.41-0.67,0.93-1.16,1.58-1.49c0.65-0.33,1.35-0.49,2.11-0.49c0.76,0,1.47,0.16,2.12,0.49
			c0.65,0.33,1.17,0.82,1.55,1.49c0.38,0.67,0.55,1.48,0.51,2.44H140.31z M154.37,36.49c-0.68,0.42-1.15,1.03-1.42,1.83v-2.24h-0.9
			v10.86h0.9v-6.26c0-1.37,0.35-2.36,1.06-2.97c0.71-0.61,1.59-0.91,2.66-0.91h0.3v-0.94C155.92,35.86,155.05,36.07,154.37,36.49z"
			/>
	</g>
</g>
<g id="PK_1">
	<g>
		<path class="st1" d="M3.53,32.57C3.95,31.71,4.38,30.86,4.8,30c0,0,0,0,0,0c-0.3,0-0.61,0-0.91,0c-0.4,0.83-0.79,1.67-1.19,2.5
			c0,0,0,0,0,0c0-0.83,0-1.67,0-2.5c-0.36,0-0.72,0-1.08,0c-0.26,0-0.52-0.01-0.73,0.05c-0.07,0.02-0.13,0.04-0.19,0.06
			c-0.22,0.09-0.38,0.24-0.5,0.43c-0.08,0.13-0.13,0.28-0.17,0.46c-0.01,0.07-0.02,0.14-0.03,0.21c0,0.03,0,0.07-0.01,0.1
			c0,0.03,0,0.05,0,0.08c0,0.05,0,0.11,0,0.16c0,0.18,0,0.35,0,0.53c0,0.05,0,0.1,0,0.15c0,0.02,0,0.05,0,0.07
			c0.01,0.03,0,0.06,0.01,0.09c0,0.03,0.01,0.07,0.01,0.1c0.01,0.04,0.02,0.09,0.02,0.13c0.02,0.08,0.04,0.16,0.07,0.24
			c0.15,0.37,0.4,0.58,0.81,0.68c0.24,0.06,0.56,0.04,0.86,0.04c0,0.72,0,1.44,0,2.16c0.3,0,0.61,0,0.91,0c0-0.59,0-1.18,0-1.78
			c0.09-0.17,0.18-0.35,0.28-0.52c0,0,0,0,0,0c0.3,0.77,0.59,1.53,0.89,2.3c0.31,0,0.62,0,0.94,0C4.38,34.7,3.95,33.63,3.53,32.57z
			 M1.78,32.77c-0.11,0-0.23,0-0.34,0c-0.08,0-0.16,0-0.22-0.01c-0.07-0.02-0.12-0.04-0.17-0.08C1.03,32.66,1.01,32.64,1,32.62
			c-0.08-0.11-0.09-0.27-0.09-0.46c0-0.21,0-0.43,0-0.64c0-0.25,0-0.43,0.11-0.57c0.04-0.06,0.11-0.09,0.19-0.11
			c0.02-0.01,0.05-0.01,0.08-0.01c0.02,0,0.05,0,0.07,0c0.04,0,0.08,0,0.12,0c0.1,0,0.2,0,0.3,0C1.78,31.47,1.78,32.12,1.78,32.77z"
			/>
	</g>
</g>
<g id="Shape_4">
	<g>
		<path class="st1" d="M70.69,16.15v6.35l11.15,6.06l11.15-6.06v-6.35l-11.15,6.06L70.69,16.15z M81.84,0L64.32,9.52l17.52,9.52
			l14.33-7.79v10.96h3.19V9.52L81.84,0z"/>
	</g>
</g>
</svg>
