<svg id="PK_pk_logo" class='PK_pk_logo' xmlns="http://www.w3.org/2000/svg" width="512" height="512" viewBox="0 0 512 512">
  <defs>
    <style>
      .PK_pk_logo_path {
        fill: #ffffff;
      }
    </style>
  </defs>
  <path id="PK_pk_logo_path" class="PK_pk_logo_path" d="M0,0H512V512H0V0ZM224.734,293.478V405.709h47.138v-92.16q7.151-13.447,14.3-26.9h0.034q22.816,59.522,45.636,119.057h48.231q-32.646-82.782-65.3-165.581L380.04,107.042v-0.034H333.107q-30.6,64.847-61.2,129.707h-0.034V107.008H216.2c-13.466,0-26.992-.36-37.411,2.7a88.21,88.21,0,0,0-10,3.345,53.942,53.942,0,0,0-25.668,22.323c-4.094,6.832-6.547,14.719-8.533,23.757-0.768,3.5-.825,7.2-1.434,10.956l-0.273,5.12-0.1,4.2q-0.018,4.215-.035,8.431v27.375l0.069,7.884q0.068,1.827.136,3.653c0.258,1.63.088,3.276,0.342,4.813l0.546,5.119q0.581,3.363,1.16,6.725a96.288,96.288,0,0,0,3.618,12.356c7.557,18.99,20.62,30.019,41.814,35.4C192.771,294.289,209.38,293.478,224.734,293.478Zm0-143.8V250.812H207.087c-4.038,0-8.206.164-11.5-.649a21.456,21.456,0,0,1-8.841-4.266,13.546,13.546,0,0,1-2.56-3.072c-3.876-5.826-4.5-14.166-4.5-24V185.685c0-12.8-.039-22.481,5.666-29.662,2.311-2.909,5.811-4.623,10-5.666,1.276-.317,2.648-0.352,4.028-0.58l3.618-.1h21.743Z"/>
</svg>