<?xml version="1.0" encoding="utf-8"?>
<!-- Generator: Adobe Illustrator 22.1.0, SVG Export Plug-In . SVG Version: 6.00 Build 0)  -->
<svg version="1.1" xmlns="http://www.w3.org/2000/svg" xmlns:xlink="http://www.w3.org/1999/xlink" x="0px" y="0px"
	 viewBox="0 0 24 24" style="enable-background:new 0 0 24 24;" xml:space="preserve">
<style type="text/css">
	.st0{enable-background:new    ;}
	.st1{fill-rule:evenodd;clip-rule:evenodd;}
	.st2{fill-rule:evenodd;clip-rule:evenodd;fill:#FFFFFF;}
</style>
<g id="Rectangle_1_1_" class="st0">
	<g id="Rectangle_1">
		<g>
			<rect class="st1" width="24" height="24"/>
		</g>
	</g>
</g>
<g id="Shape_1_1_" class="st0">
	<g id="Shape_1">
		<g>
			<path class="st2" d="M0,0v24h24V0H0z M15.6,19c-0.7-1.9-1.4-3.7-2.1-5.6h0c-0.2,0.4-0.4,0.8-0.7,1.3V19h-2.2v-5.3
				c-0.7,0-1.5,0-2.1-0.1c-1-0.3-1.6-0.8-2-1.7c-0.1-0.2-0.1-0.4-0.2-0.6c0-0.1,0-0.2-0.1-0.3l0-0.2c0-0.1,0-0.1,0-0.2l0-0.2
				c0-0.1,0-0.2,0-0.4V8.8c0-0.1,0-0.3,0-0.4c0-0.1,0-0.1,0-0.2c0-0.1,0-0.2,0-0.2c0-0.2,0-0.3,0.1-0.5C6.4,7,6.5,6.7,6.7,6.3
				c0.3-0.5,0.7-0.8,1.2-1c0.1-0.1,0.3-0.1,0.5-0.2C8.9,5,9.5,5,10.1,5h2.6v6.1h0c1-2,1.9-4.1,2.9-6.1h2.2v0c-1,2.1-2,4.2-3.1,6.2
				c1,2.6,2,5.2,3.1,7.8H15.6z M9.3,7C9.3,7,9.2,7,9.2,7C9,7.1,8.8,7.2,8.7,7.3C8.4,7.7,8.4,8.1,8.4,8.7v1.6c0,0.5,0,0.9,0.2,1.1
				c0,0.1,0.1,0.1,0.1,0.1c0.1,0.1,0.2,0.2,0.4,0.2c0.2,0,0.3,0,0.5,0h0.8V7h-1C9.5,7,9.4,7,9.3,7z"/>
		</g>
	</g>
</g>
</svg>
